<?xml version="1.0" standalone="no"?>
<!DOCTYPE svg PUBLIC "-//W3C//DTD SVG 20010904//EN"
 "http://www.w3.org/TR/2001/REC-SVG-20010904/DTD/svg10.dtd">
<svg version="1.0" xmlns="http://www.w3.org/2000/svg"
 width="260.000000pt" height="260.000000pt" viewBox="0 0 260.000000 260.000000"
 preserveAspectRatio="xMidYMid meet">
<metadata>
Created by potrace 1.11, written by Peter Selinger 2001-2013
</metadata>
<g transform="translate(0.000000,260.000000) scale(0.100000,-0.100000)"
fill="#000000" stroke="none">
<path d="M1170 2537 c-3 -3 -31 -8 -63 -12 -69 -7 -205 -45 -285 -79 -357
-152 -621 -454 -721 -826 -31 -118 -36 -164 -35 -340 1 -142 4 -179 26 -265
92 -362 309 -641 632 -814 78 -42 250 -105 316 -115 19 -3 46 -8 60 -12 54
-13 325 -12 405 2 264 46 485 162 675 353 188 190 297 402 349 681 3 19 6 112
5 205 0 148 -4 183 -26 271 -31 122 -76 236 -128 327 -187 325 -507 548 -875
611 -75 12 -325 22 -335 13z"/>
</g>
</svg>
